:SAMPLES-PER-SECOND 30
:FULLY-SPECIFIED
:DEGREES
928
root  -16.3445 29.2966 10.0385 -22.4824 -16.3983 -160.417
Spine  11.6162 22.7191 9.25786
Spine1  11.6082 -29.5407 -26.6713
Neck  3.97569e-016 0 -2.38542e-015
Head  -4.52408 -7.76214 -17.6841
R_Clavicle  0.699709 5.82028 3.21671
R_UpperArm  54.6443 26.3341 11.6349
R_Forearm  55.9228 -12.8309 7.68938
R_Hand  -45.2159 51.9695 -98.9757
L_Clavicle  -0.365208 9.62834 1.824
L_UpperArm  -22.6379 -42.0333 -22.2075
L_Forearm  -58.029 12.5331 12.4586
L_Hand  27.3435 -40.9622 -72.2959
L_Thigh  -12.2786 40.4403 11.2462
L_Calf  -0.100064 -6.86682 50.1872
L_Foot  -5.96153 -6.08961 -31.556
L_Toe0  0.505156 0.00347065 -6.13637
R_Thigh  -15.2261 -65.1561 25.7712
R_Calf  17.0263 11.9524 40.6974
R_Foot  1.17357 2.63086 -4.57481
R_Toe0  -1.78853 -0.272788 -17.3235
929
root  -16.1708 27.7413 10.6344 -39.931 -25.168 -165.377
Spine  20.1281 28.805 15.101
Spine1  18.7733 -37.7092 -25.3551
Neck  3.97569e-016 0 -2.38542e-015
Head  -6.58188 -6.01602 -13.788
R_Clavicle  0.900569 -1.37369 4.90375
R_UpperArm  36.6369 34.847 6.69022
R_Forearm  35.8407 -30.8161 18.6932
R_Hand  -5.57211 37.4078 -28.3933
L_Clavicle  -0.379772 9.3613 2.00355
L_UpperArm  -22.2198 -40.7377 -18.5598
L_Forearm  -55.1427 16.6243 14.4043
L_Hand  28.3873 -44.867 -68.0578
L_Thigh  -12.485 37.8242 8.14056
L_Calf  7.70537 -5.81106 46.1972
L_Foot  -5.95594 -9.76741 -32.2213
L_Toe0  0.505156 0.00351722 -6.13637
R_Thigh  -17.9524 -66.6891 32.5761
R_Calf  15.1348 12.5844 43.4489
R_Foot  0.176684 -1.74861 -5.27343
R_Toe0  -1.78853 -0.272788 -17.3235
930
root  -16.1332 25.7619 10.5189 -54.5455 -37.7127 -170.31
Spine  25.8705 32.8071 20.1502
Spine1  21.122 -37.5345 -23.1641
Neck  3.97569e-016 0 -2.38542e-015
Head  -5.14055 0.265188 -8.34503
R_Clavicle  0.256901 -8.23907 0.814249
R_UpperArm  6.2486 33.5438 7.61159
R_Forearm  38.2769 -24.3092 18.2324
R_Hand  0.262534 18.1538 -13.7765
L_Clavicle  -0.383617 9.50566 1.98288
L_UpperArm  -27.4717 -34.4703 -7.98562
L_Forearm  -49.1665 16.6399 14.9534
L_Hand  31.8682 -45.8958 -73.1999
L_Thigh  -9.15569 35.1552 3.23778
L_Calf  9.51313 -4.34171 42.9534
L_Foot  -5.79357 -13.1055 -31.4308
L_Toe0  0.505156 0.00357388 -6.13637
R_Thigh  -21.9566 -66.3303 39.8605
R_Calf  16.1994 12.8035 44.462
R_Foot  -0.395095 -4.70561 -6.13833
R_Toe0  -1.78853 -0.272788 -17.3235
931
root  -16.49 23.5461 10.0406 -64.7938 -52.305 -175.515
Spine  27.3262 35.3802 23.103
Spine1  18.9409 -31.6075 -20.67
Neck  3.97569e-016 0 -2.38542e-015
Head  -0.319351 7.16399 0.883419
R_Clavicle  -0.300741 -8.73304 -3.81307
R_UpperArm  6.14034 20.6233 18.5183
R_Forearm  22.6039 -4.6243 4.14081
R_Hand  1.47461 5.99017 4.11757
L_Clavicle  -0.456384 12.3474 3.37652
L_UpperArm  -33.4035 -24.3481 4.97743
L_Forearm  -40.8885 13.9018 13.7193
L_Hand  34.5106 -43.4646 -81.7193
L_Thigh  -8.4911 31.5894 -3.067
L_Calf  13.6707 -4.40637 41.8525
L_Foot  -5.75956 -14.3459 -31.2964
L_Toe0  0.505156 0.00364047 -6.13637
R_Thigh  -26.5377 -65.3532 46.0207
R_Calf  17.6837 12.7998 44.9041
R_Foot  -0.545568 -6.04748 -7.12062
R_Toe0  -1.78853 -0.272788 -17.3235
932
root  -17.316 21.2946 9.40187 -68.0839 -67.8345 173.934
Spine  25.8521 36.235 24.9537
Spine1  15.0912 -24.3552 -18.3131
Neck  3.97569e-016 0 -2.38542e-015
Head  5.82775 11.3143 13.2205
R_Clavicle  -0.447526 -6.44557 -3.96289
R_UpperArm  8.35312 9.6623 27.657
R_Forearm  2.49205 12.8441 -10.9466
R_Hand  -2.73994 -14.2231 -2.085
L_Clavicle  -0.491231 12.2319 4.23755
L_UpperArm  -38.601 -10.4744 16.5855
L_Forearm  -32.6024 11.072 13.7398
L_Hand  39.3117 -43.0731 -90.3425
L_Thigh  -16.6463 27.9122 -10.5412
L_Calf  24.78 -5.07754 41.6397
L_Foot  -5.72651 -13.5313 -30.7542
L_Toe0  0.505156 0.00371681 -6.13637
R_Thigh  -28.8568 -62.4515 53.1485
R_Calf  13.7803 12.4705 44.3421
R_Foot  -0.686096 -5.72129 -5.77153
R_Toe0  -1.78853 -0.272788 -17.3235
933
root  -18.6116 19.1266 8.53895 -81.1852 -83.2528 174.251
Spine  21.9676 36.5117 23.5919
Spine1  10.4166 -17.8971 -13.7228
Neck  3.97569e-016 0 -2.38542e-015
Head  11.4524 12.1623 24.9102
R_Clavicle  -0.192252 -3.01 -1.43952
R_UpperArm  16.0485 5.9186 36.8296
R_Forearm  -10.5521 29.2503 -27.7512
R_Hand  -1.00032 -17.7926 -22.2879
L_Clavicle  -0.477793 7.38462 3.56845
L_UpperArm  -41.7805 6.6048 25.0327
L_Forearm  -26.4659 9.0834 15.2815
L_Hand  49.2437 -43.551 -103.839
L_Thigh  -21.2619 24.1539 -14.0911
L_Calf  31.0214 -4.71612 35.7575
L_Foot  -5.12186 -12.1506 -23.3809
L_Toe0  0.505156 0.00380275 -6.13637
R_Thigh  -27.7086 -57.5189 58.3757
R_Calf  9.11862 12.2258 43.0747
R_Foot  -0.5686 -4.03771 -3.96135
R_Toe0  -1.78853 -0.272788 -17.3235
934
root  -20.4096 17.1901 7.7129 48.2336 -82.2534 34.3796
Spine  16.0954 34.8492 18.594
Spine1  5.87379 -9.15967 -8.59653
Neck  3.97569e-016 0 -2.38542e-015
Head  15.2925 9.7052 33.0332
R_Clavicle  -0.0525887 3.577 -0.00856577
R_UpperArm  34.4528 5.74365 44.8225
R_Forearm  -11.8305 39.371 -42.9879
R_Hand  -1.46877 -2.68552 -23.6905
L_Clavicle  -0.550428 4.68599 4.22666
L_UpperArm  -39.7002 20.6592 30.1297
L_Forearm  -21.922 10.3982 17.5457
L_Hand  56.6346 -39.872 -118.319
L_Thigh  -22.0151 21.0601 -12.3674
L_Calf  31.0071 -3.76604 27.967
L_Foot  -4.35215 -12.9308 -12.481
L_Toe0  0.505156 0.00389811 -6.13637
R_Thigh  -25.8073 -53.4397 60.1909
R_Calf  7.22015 12.103 42.936
R_Foot  -0.113472 -2.75002 -4.90467
R_Toe0  -1.78853 -0.272788 -17.3235
935
root  -22.7125 15.5743 7.31964 69.0167 -71.7646 5.90007
Spine  10.5141 32.6205 11.1764
Spine1  2.8214 -0.461228 -2.81582
Neck  3.97569e-016 0 -2.38542e-015
Head  14.6689 6.96162 36.2239
R_Clavicle  0.416186 9.89994 2.14784
R_UpperArm  59.3418 1.29404 49.602
R_Forearm  -7.68391 42.1553 -48.7772
R_Hand  -1.96464 8.86051 -26.4493
L_Clavicle  -0.725123 3.83105 5.73731
L_UpperArm  -34.9727 29.7667 31.5747
L_Forearm  -13.2785 14.5314 20.6818
L_Hand  58.4312 -35.5331 -127.044
L_Thigh  -21.1406 18.8225 -6.25234
L_Calf  26.9326 -3.08689 22.4815
L_Foot  -4.75325 -17.6518 -5.14473
L_Toe0  0.505156 0.00400273 -6.13637
R_Thigh  -25.1113 -52.3204 59.941
R_Calf  6.13503 11.7152 44.5013
R_Foot  0.266732 -2.27414 -6.89287
R_Toe0  -1.78853 -0.272788 -17.3235
936
root  -25.3386 14.3782 7.53503 65.1191 -60.2596 3.15528
Spine  7.05283 30.0742 6.34339
Spine1  1.24354 6.39769 0.564561
Neck  3.97569e-016 0 -2.38542e-015
Head  12.7466 4.65108 37.7958
R_Clavicle  0.577837 10.8982 2.65555
R_UpperArm  78.055 -11.4961 53.3112
R_Forearm  -2.67216 41.7612 -47.8901
R_Hand  -5.21938 12.1722 -44.8316
L_Clavicle  -0.789514 4.95117 6.67116
L_UpperArm  -30.1688 37.4754 36.3386
L_Forearm  -1.28067 14.8647 19.504
L_Hand  52.3076 -33.1725 -125.012
L_Thigh  -19.8063 18.5652 1.24126
L_Calf  21.1004 -2.73897 19.8023
L_Foot  -5.18366 -20.0464 -0.881413
L_Toe0  0.505156 0.00411644 -6.13636
R_Thigh  -21.5072 -53.6279 56.0898
R_Calf  3.57231 10.5927 47.6048
R_Foot  0.458956 -1.90493 -7.75216
R_Toe0  -1.78853 -0.272788 -17.3235
937
root  -27.8182 13.8115 8.33699 60.5949 -46.9427 -1.41222
Spine  5.39637 26.8951 6.37538
Spine1  0.294969 10.1271 2.57375
Neck  3.97569e-016 0 -2.38542e-015
Head  13.5525 1.80929 39.1608
R_Clavicle  0.389666 4.46484 1.99859
R_UpperArm  79.3326 -22.5382 56.8142
R_Forearm  4.03458 37.1736 -39.0685
R_Hand  -8.84255 13.378 -61.9401
L_Clavicle  -0.829883 5.09148 7.1235
L_UpperArm  -27.9843 46.1498 44.0494
L_Forearm  17.8486 10.5882 16.402
L_Hand  47.3332 -37.2678 -112.963
L_Thigh  -21.5305 22.032 5.19509
L_Calf  17.2739 -3.12815 22.8133
L_Foot  -3.69655 -15.0243 2.75111
L_Toe0  0.505156 0.00423907 -6.13636
R_Thigh  -13.3485 -54.5645 48.2652
R_Calf  -0.297658 9.55318 51.0204
R_Foot  0.569749 -2.29339 -9.20234
R_Toe0  -1.78853 -0.272788 -17.3235
938
root  -29.6243 13.881 9.47495 53.2122 -34.4679 -6.28723
Spine  4.10832 23.3134 8.2644
Spine1  -0.413553 10.707 4.54999
Neck  3.97569e-016 0 -2.38542e-015
Head  17.3814 -1.14281 39.7271
R_Clavicle  0.357957 -6.93575 1.73585
R_UpperArm  65.6666 -24.2975 61.0307
R_Forearm  11.7881 21.435 -19.0646
R_Hand  -9.31403 12.85 -65.777
L_Clavicle  -0.780148 4.48001 6.46632
L_UpperArm  -31.4459 56.4643 52.6558
L_Forearm  44.6379 4.26342 11.5754
L_Hand  41.3539 -46.2963 -88.024
L_Thigh  -25.2012 29.2447 7.0857
L_Calf  12.7602 -4.06816 30.6377
L_Foot  -2.0909 -9.76879 3.42376
L_Toe0  0.505156 0.00437046 -6.13636
R_Thigh  -5.88206 -54.4764 39.107
R_Calf  -1.19944 9.73219 52.9444
R_Foot  0.717183 -3.67583 -12.2491
R_Toe0  -1.78853 -0.272788 -17.3235
939
root  -31.1126 14.2274 10.4804 44.0732 -24.4059 -11.6988
Spine  3.41283 20.2796 10.1028
Spine1  -0.536495 9.95322 6.71236
Neck  3.97569e-016 0 -2.38542e-015
Head  20.0138 -2.69379 39.2767
R_Clavicle  0.41559 -18.9852 2.13543
R_UpperArm  50.4434 -21.9948 65.4541
R_Forearm  17.2212 -3.03697 2.64766
R_Hand  -7.18302 10.7468 -58.2556
L_Clavicle  -0.57112 7.71498 4.78329
L_UpperArm  -41.5024 64.0119 63.2718
L_Forearm  60.9049 0.606397 3.16289
L_Hand  23.5254 -41.7272 -62.6251
L_Thigh  -24.3886 39.4396 12.7867
L_Calf  1.34163 -4.37044 33.3159
L_Foot  -0.495946 -5.03683 4.80407
L_Toe0  0.505156 0.00451044 -6.13636
R_Thigh  0.607864 -54.8715 28.1962
R_Calf  1.6538 9.84909 54.0985
R_Foot  0.971365 -4.28993 -14.7235
R_Toe0  -1.78853 -0.272788 -17.3235
940
root  -32.4466 14.7239 11.3967 34.1852 -15.7373 -18.1104
Spine  3.77184 17.6359 11.9182
Spine1  0.579016 10.7851 10.2161
Neck  3.97569e-016 0 -2.38542e-015
Head  18.6738 -3.98296 38.6362
R_Clavicle  0.403693 -27.3031 2.51327
R_UpperArm  41.5535 -22.2003 67.2856
R_Forearm  13.3977 -25.1626 21.4629
R_Hand  -7.40452 12.3095 -56.6828
L_Clavicle  -0.46745 15.1138 4.85814
L_UpperArm  -36.9291 62.3568 77.5611
L_Forearm  64.7784 -4.12988 -5.03646
L_Hand  14.7556 -37.9894 -46.1537
L_Thigh  -19.3356 49.1369 20.6072
L_Calf  -14.9701 -4.99449 37.2379
L_Foot  5.21239 9.5811 9.55659
L_Toe0  0.505156 0.00465884 -6.13636
R_Thigh  5.46875 -56.6168 14.3925
R_Calf  7.51707 9.70389 53.2634
R_Foot  0.831514 -5.3103 -14.8463
R_Toe0  -1.78853 -0.272788 -17.3235
941
root  -33.61 15.141 12.0882 23.5542 -8.98776 -24.1237
Spine  4.92276 15.51 14.1142
Spine1  2.17606 12.1892 12.5576
Neck  3.97569e-016 0 -2.38542e-015
Head  15.5222 -6.40049 38.9999
R_Clavicle  0.324498 -32.4458 3.13235
R_UpperArm  37.6869 -30.4477 73.9117
R_Forearm  -6.01082 -30.2698 19.8666
R_Hand  -16.2303 32.5543 -62.6017
L_Clavicle  -0.342428 21.0729 5.51524
L_UpperArm  -32.3749 59.5398 86.6309
L_Forearm  66.0311 -8.14097 -9.5217
L_Hand  8.6997 -32.5868 -33.7743
L_Thigh  -9.94871 54.9157 33.7337
L_Calf  -22.0327 -6.36188 42.2796
L_Foot  11.4716 21.8599 15.4602
L_Toe0  0.505156 0.00481549 -6.13636
R_Thigh  2.24531 -58.0055 1.83308
R_Calf  17.5231 10.9827 46.9827
R_Foot  0.310108 -8.16625 -14.3535
R_Toe0  -1.78853 -0.272788 -17.3235
942
root  -34.4022 14.8364 12.6908 11.396 -4.45273 -26.7902
Spine  5.99301 14.2598 16.786
Spine1  2.95445 9.78897 13.2351
Neck  3.97569e-016 0 -2.38542e-015
Head  14.2234 -7.73742 38.9291
R_Clavicle  0.203946 -32.9927 4.20398
R_UpperArm  14.2048 -47.6364 99.4779
R_Forearm  -18.4188 2.55258 -9.85504
R_Hand  -32.4657 52.6563 -75.9778
L_Clavicle  -0.327434 22.5227 5.28483
L_UpperArm  -25.4235 57.7031 93.0213
L_Forearm  64.4077 -9.21073 -10.8206
L_Hand  5.46472 -28.1913 -25.6398
L_Thigh  -0.140165 53.3308 51.2291
L_Calf  -16.6237 -7.41077 43.7206
L_Foot  8.73493 13.8864 15.9725
L_Toe0  0.505156 0.00498024 -6.13636
R_Thigh  -0.00205276 -54.9831 -5.99362
R_Calf  22.7896 11.965 39.936
R_Foot  0.416544 -8.37413 -15.2489
R_Toe0  -1.78853 -0.272788 -17.3235
